# xmcd CD database file
#
# Track frame offsets:
#	150
#	16735
#	33132
#	54201
#	75767
#	109454
#	133233
#	149811
#	168198
#	183191
#	202520
#	220024
#	239164
#	263919
#	277422
#	300930
#
# Disc length: 4352 seconds
#
# Revision: 0
# Processed by: cddbd v1.5.2PL0 Copyright (c) Steve Scherf et al.
# Submitted via: CDex 1.70beta2
#
DISCID=d710fe10
DTITLE=Various Artist - Beyond The Skies Vol. 3 CD1
DYEAR=2000
DGENRE=New Age
TTITLE0=Lesiem - Fundamentum
TTITLE1=Nightmares on Wax - Les Nuits
TTITLE2=Blackmore´s Night - Morning Star
TTITLE3=Star Inc. - The Piano
TTITLE4=Delerium - Remembrance
TTITLE5=Delago - Indian Indian
TTITLE6=Lydia - St. Claire´s Mountain
TTITLE7=Terra Cotta - Lover´s Kiss
TTITLE8=Sandra Summer - Another Dimension
TTITLE9=Mike Oldfield - Tubular Bells
TTITLE10=Software - Cave
TTITLE11=Bernd Scholl - Shamanic Journey
TTITLE12=Pete Bardens - In Dreams
TTITLE13=Maurizio Burgarello - Sogn of Love
TTITLE14=Gandalf - Titaptawa
TTITLE15=Ad Visser and Gary Brooker - No News from the Western Frontier
EXTD=YEAR: 2000
EXTT0=
EXTT1=
EXTT2=
EXTT3=
EXTT4=
EXTT5=
EXTT6=
EXTT7=
EXTT8=
EXTT9=
EXTT10=
EXTT11=
EXTT12=
EXTT13=
EXTT14=
EXTT15=
PLAYORDER=
